<svg width="261" height="193" viewBox="0 0 261 193" fill="none" xmlns="http://www.w3.org/2000/svg">
<g clip-path="url(#clip0_11_10)" filter="url(#filter0_d_11_10)">
<line x1="46" y1="30" x2="77" y2="30" stroke="#FFF615" stroke-opacity="0.8" stroke-width="2"/>
<g opacity="0.8">
<path d="M93.8926 32.1973C93.8926 31.9368 93.834 31.696 93.7168 31.4746C93.6061 31.2467 93.375 31.0417 93.0234 30.8594C92.6784 30.6706 92.1576 30.5078 91.4609 30.3711C90.875 30.2474 90.3444 30.1009 89.8691 29.9316C89.4004 29.7624 89 29.5573 88.668 29.3164C88.3424 29.0755 88.0918 28.7923 87.916 28.4668C87.7402 28.1413 87.6523 27.7604 87.6523 27.3242C87.6523 26.9076 87.7435 26.5137 87.9258 26.1426C88.1146 25.7715 88.3783 25.4427 88.7168 25.1562C89.0618 24.8698 89.4753 24.6452 89.957 24.4824C90.4388 24.3197 90.9759 24.2383 91.5684 24.2383C92.4147 24.2383 93.1374 24.388 93.7363 24.6875C94.3353 24.987 94.7943 25.3874 95.1133 25.8887C95.4323 26.3835 95.5918 26.9336 95.5918 27.5391H93.7852C93.7852 27.2461 93.6973 26.9629 93.5215 26.6895C93.3522 26.4095 93.1016 26.1784 92.7695 25.9961C92.444 25.8138 92.0436 25.7227 91.5684 25.7227C91.0671 25.7227 90.6602 25.8008 90.3477 25.957C90.0417 26.1068 89.8171 26.2988 89.6738 26.5332C89.5371 26.7676 89.4688 27.015 89.4688 27.2754C89.4688 27.4707 89.5013 27.6465 89.5664 27.8027C89.638 27.9525 89.7617 28.0924 89.9375 28.2227C90.1133 28.3464 90.3607 28.4635 90.6797 28.5742C90.9987 28.6849 91.4056 28.7956 91.9004 28.9062C92.7663 29.1016 93.4792 29.3359 94.0391 29.6094C94.599 29.8828 95.0156 30.2181 95.2891 30.6152C95.5625 31.0124 95.6992 31.4941 95.6992 32.0605C95.6992 32.5228 95.6016 32.946 95.4062 33.3301C95.2174 33.7142 94.9408 34.0462 94.5762 34.3262C94.2181 34.5996 93.7884 34.8145 93.2871 34.9707C92.7923 35.1204 92.2357 35.1953 91.6172 35.1953C90.6862 35.1953 89.8984 35.0293 89.2539 34.6973C88.6094 34.3652 88.1211 33.9355 87.7891 33.4082C87.457 32.8809 87.291 32.3242 87.291 31.7383H89.1074C89.1335 32.2331 89.2767 32.627 89.5371 32.9199C89.7975 33.2064 90.1165 33.4115 90.4941 33.5352C90.8717 33.6523 91.2461 33.7109 91.6172 33.7109C92.112 33.7109 92.5254 33.6458 92.8574 33.5156C93.196 33.3854 93.4531 33.2064 93.6289 32.9785C93.8047 32.7507 93.8926 32.4902 93.8926 32.1973ZM107.457 24.4336V25.8203H101.744V24.4336H107.457ZM103.678 21.8652H105.484V32.3828C105.484 32.7409 105.54 33.0111 105.65 33.1934C105.761 33.3757 105.904 33.4961 106.08 33.5547C106.256 33.6133 106.445 33.6426 106.646 33.6426C106.796 33.6426 106.952 33.6296 107.115 33.6035C107.285 33.571 107.411 33.5449 107.496 33.5254L107.506 35C107.363 35.0456 107.174 35.0879 106.939 35.127C106.712 35.1725 106.435 35.1953 106.109 35.1953C105.667 35.1953 105.26 35.1074 104.889 34.9316C104.518 34.7559 104.221 34.4629 104 34.0527C103.785 33.6361 103.678 33.0762 103.678 32.373V21.8652ZM121.002 32.5586V24.4336H122.818V35H121.09L121.002 32.5586ZM121.344 30.332L122.096 30.3125C122.096 31.0156 122.021 31.6667 121.871 32.2656C121.728 32.8581 121.493 33.3724 121.168 33.8086C120.842 34.2448 120.416 34.5866 119.889 34.834C119.361 35.0749 118.72 35.1953 117.965 35.1953C117.451 35.1953 116.979 35.1204 116.549 34.9707C116.126 34.821 115.761 34.5898 115.455 34.2773C115.149 33.9648 114.911 33.5579 114.742 33.0566C114.579 32.5553 114.498 31.9531 114.498 31.25V24.4336H116.305V31.2695C116.305 31.7448 116.357 32.1387 116.461 32.4512C116.572 32.7572 116.718 33.0013 116.9 33.1836C117.089 33.3594 117.298 33.4831 117.525 33.5547C117.76 33.6263 118.001 33.6621 118.248 33.6621C119.016 33.6621 119.625 33.5156 120.074 33.2227C120.523 32.9232 120.846 32.5228 121.041 32.0215C121.243 31.5137 121.344 30.9505 121.344 30.332ZM137.193 32.9492V20H139.01V35H137.35L137.193 32.9492ZM130.084 29.834V29.6289C130.084 28.8216 130.182 28.0892 130.377 27.4316C130.579 26.7676 130.862 26.1979 131.227 25.7227C131.598 25.2474 132.037 24.8828 132.545 24.6289C133.059 24.3685 133.632 24.2383 134.264 24.2383C134.928 24.2383 135.507 24.3555 136.002 24.5898C136.503 24.8177 136.926 25.153 137.271 25.5957C137.623 26.0319 137.9 26.5592 138.102 27.1777C138.303 27.7962 138.443 28.4961 138.521 29.2773V30.1758C138.45 30.9505 138.31 31.6471 138.102 32.2656C137.9 32.8841 137.623 33.4115 137.271 33.8477C136.926 34.2839 136.503 34.6191 136.002 34.8535C135.501 35.0814 134.915 35.1953 134.244 35.1953C133.626 35.1953 133.059 35.0618 132.545 34.7949C132.037 34.528 131.598 34.1536 131.227 33.6719C130.862 33.1901 130.579 32.6237 130.377 31.9727C130.182 31.3151 130.084 30.6022 130.084 29.834ZM131.9 29.6289V29.834C131.9 30.3613 131.952 30.8561 132.057 31.3184C132.167 31.7806 132.337 32.1875 132.564 32.5391C132.792 32.8906 133.082 33.1673 133.434 33.3691C133.785 33.5645 134.205 33.6621 134.693 33.6621C135.292 33.6621 135.784 33.5352 136.168 33.2812C136.559 33.0273 136.871 32.6921 137.105 32.2754C137.34 31.8587 137.522 31.4062 137.652 30.918V28.5645C137.574 28.2064 137.46 27.8613 137.311 27.5293C137.167 27.1908 136.979 26.8913 136.744 26.6309C136.516 26.3639 136.233 26.1523 135.895 25.9961C135.562 25.8398 135.169 25.7617 134.713 25.7617C134.218 25.7617 133.792 25.8659 133.434 26.0742C133.082 26.276 132.792 26.556 132.564 26.9141C132.337 27.2656 132.167 27.6758 132.057 28.1445C131.952 28.6068 131.9 29.1016 131.9 29.6289ZM148.746 24.4336V35H146.93V24.4336H148.746ZM146.793 21.6309C146.793 21.3379 146.881 21.0905 147.057 20.8887C147.239 20.6868 147.506 20.5859 147.857 20.5859C148.202 20.5859 148.466 20.6868 148.648 20.8887C148.837 21.0905 148.932 21.3379 148.932 21.6309C148.932 21.9108 148.837 22.1517 148.648 22.3535C148.466 22.5488 148.202 22.6465 147.857 22.6465C147.506 22.6465 147.239 22.5488 147.057 22.3535C146.881 22.1517 146.793 21.9108 146.793 21.6309ZM156.129 29.834V29.6094C156.129 28.8477 156.24 28.1413 156.461 27.4902C156.682 26.8327 157.001 26.263 157.418 25.7812C157.835 25.293 158.339 24.9154 158.932 24.6484C159.524 24.375 160.188 24.2383 160.924 24.2383C161.666 24.2383 162.333 24.375 162.926 24.6484C163.525 24.9154 164.033 25.293 164.449 25.7812C164.872 26.263 165.195 26.8327 165.416 27.4902C165.637 28.1413 165.748 28.8477 165.748 29.6094V29.834C165.748 30.5957 165.637 31.3021 165.416 31.9531C165.195 32.6042 164.872 33.1738 164.449 33.6621C164.033 34.1439 163.528 34.5215 162.936 34.7949C162.35 35.0618 161.686 35.1953 160.943 35.1953C160.201 35.1953 159.534 35.0618 158.941 34.7949C158.349 34.5215 157.841 34.1439 157.418 33.6621C157.001 33.1738 156.682 32.6042 156.461 31.9531C156.24 31.3021 156.129 30.5957 156.129 29.834ZM157.936 29.6094V29.834C157.936 30.3613 157.997 30.8594 158.121 31.3281C158.245 31.7904 158.43 32.2005 158.678 32.5586C158.932 32.9167 159.247 33.1999 159.625 33.4082C160.003 33.61 160.442 33.7109 160.943 33.7109C161.438 33.7109 161.871 33.61 162.242 33.4082C162.62 33.1999 162.932 32.9167 163.18 32.5586C163.427 32.2005 163.613 31.7904 163.736 31.3281C163.867 30.8594 163.932 30.3613 163.932 29.834V29.6094C163.932 29.0885 163.867 28.597 163.736 28.1348C163.613 27.666 163.424 27.2526 163.17 26.8945C162.923 26.5299 162.61 26.2435 162.232 26.0352C161.861 25.8268 161.425 25.7227 160.924 25.7227C160.429 25.7227 159.993 25.8268 159.615 26.0352C159.244 26.2435 158.932 26.5299 158.678 26.8945C158.43 27.2526 158.245 27.666 158.121 28.1348C157.997 28.597 157.936 29.0885 157.936 29.6094ZM46.75 109.5H52.5938L67.5 146.594L82.375 109.5H88.25L69.75 155H65.1875L46.75 109.5ZM44.8438 109.5H50L50.8438 137.25V155H44.8438V109.5ZM84.9688 109.5H90.125V155H84.125V137.25L84.9688 109.5ZM120.531 147.188V121.188H126.344V155H120.812L120.531 147.188ZM121.625 140.062L124.031 140C124.031 142.25 123.792 144.333 123.312 146.25C122.854 148.146 122.104 149.792 121.062 151.188C120.021 152.583 118.656 153.677 116.969 154.469C115.281 155.24 113.229 155.625 110.812 155.625C109.167 155.625 107.656 155.385 106.281 154.906C104.927 154.427 103.76 153.688 102.781 152.688C101.802 151.688 101.042 150.385 100.5 148.781C99.9792 147.177 99.7188 145.25 99.7188 143V121.188H105.5V143.062C105.5 144.583 105.667 145.844 106 146.844C106.354 147.823 106.823 148.604 107.406 149.188C108.01 149.75 108.677 150.146 109.406 150.375C110.156 150.604 110.927 150.719 111.719 150.719C114.177 150.719 116.125 150.25 117.562 149.312C119 148.354 120.031 147.073 120.656 145.469C121.302 143.844 121.625 142.042 121.625 140.062ZM140.938 128.406V155H135.156V121.188H140.625L140.938 128.406ZM139.562 136.812L137.156 136.719C137.177 134.406 137.521 132.271 138.188 130.312C138.854 128.333 139.792 126.615 141 125.156C142.208 123.698 143.646 122.573 145.312 121.781C147 120.969 148.865 120.562 150.906 120.562C152.573 120.562 154.073 120.792 155.406 121.25C156.74 121.688 157.875 122.396 158.812 123.375C159.771 124.354 160.5 125.625 161 127.188C161.5 128.729 161.75 130.615 161.75 132.844V155H155.938V132.781C155.938 131.01 155.677 129.594 155.156 128.531C154.635 127.448 153.875 126.667 152.875 126.188C151.875 125.688 150.646 125.438 149.188 125.438C147.75 125.438 146.438 125.74 145.25 126.344C144.083 126.948 143.073 127.781 142.219 128.844C141.385 129.906 140.729 131.125 140.25 132.5C139.792 133.854 139.562 135.292 139.562 136.812ZM176.812 121.188V155H171V121.188H176.812ZM170.562 112.219C170.562 111.281 170.844 110.49 171.406 109.844C171.99 109.198 172.844 108.875 173.969 108.875C175.073 108.875 175.917 109.198 176.5 109.844C177.104 110.49 177.406 111.281 177.406 112.219C177.406 113.115 177.104 113.885 176.5 114.531C175.917 115.156 175.073 115.469 173.969 115.469C172.844 115.469 171.99 115.156 171.406 114.531C170.844 113.885 170.562 113.115 170.562 112.219ZM211.281 150.25V155H186.688V150.25H211.281ZM210.375 125.281L188 155H184.469V150.75L206.688 121.188H210.375V125.281ZM207.812 121.188V125.969H184.719V121.188H207.812Z" fill="white"/>
<path d="M63.625 73.7188H52.0938L52.0312 68.875H62.5C64.2292 68.875 65.7396 68.5833 67.0312 68C68.3229 67.4167 69.3229 66.5833 70.0312 65.5C70.7604 64.3958 71.125 63.0833 71.125 61.5625C71.125 59.8958 70.8021 58.5417 70.1562 57.5C69.5312 56.4375 68.5625 55.6667 67.25 55.1875C65.9583 54.6875 64.3125 54.4375 62.3125 54.4375H53.4375V95H47.4062V49.5H62.3125C64.6458 49.5 66.7292 49.7396 68.5625 50.2188C70.3958 50.6771 71.9479 51.4062 73.2188 52.4062C74.5104 53.3854 75.4896 54.6354 76.1562 56.1562C76.8229 57.6771 77.1562 59.5 77.1562 61.625C77.1562 63.5 76.6771 65.1979 75.7188 66.7188C74.7604 68.2188 73.4271 69.4479 71.7188 70.4062C70.0312 71.3646 68.0521 71.9792 65.7812 72.25L63.625 73.7188ZM63.3438 95H49.7188L53.125 90.0938H63.3438C65.2604 90.0938 66.8854 89.7604 68.2188 89.0938C69.5729 88.4271 70.6042 87.4896 71.3125 86.2812C72.0208 85.0521 72.375 83.6042 72.375 81.9375C72.375 80.25 72.0729 78.7917 71.4688 77.5625C70.8646 76.3333 69.9167 75.3854 68.625 74.7188C67.3333 74.0521 65.6667 73.7188 63.625 73.7188H55.0312L55.0938 68.875H66.8438L68.125 70.625C70.3125 70.8125 72.1667 71.4375 73.6875 72.5C75.2083 73.5417 76.3646 74.875 77.1562 76.5C77.9688 78.125 78.375 79.9167 78.375 81.875C78.375 84.7083 77.75 87.1042 76.5 89.0625C75.2708 91 73.5312 92.4792 71.2812 93.5C69.0312 94.5 66.3854 95 63.3438 95ZM92.1875 66.5V95H86.4062V61.1875H92.0312L92.1875 66.5ZM102.75 61L102.719 66.375C102.24 66.2708 101.781 66.2083 101.344 66.1875C100.927 66.1458 100.448 66.125 99.9062 66.125C98.5729 66.125 97.3958 66.3333 96.375 66.75C95.3542 67.1667 94.4896 67.75 93.7812 68.5C93.0729 69.25 92.5104 70.1458 92.0938 71.1875C91.6979 72.2083 91.4375 73.3333 91.3125 74.5625L89.6875 75.5C89.6875 73.4583 89.8854 71.5417 90.2812 69.75C90.6979 67.9583 91.3333 66.375 92.1875 65C93.0417 63.6042 94.125 62.5208 95.4375 61.75C96.7708 60.9583 98.3542 60.5625 100.188 60.5625C100.604 60.5625 101.083 60.6146 101.625 60.7188C102.167 60.8021 102.542 60.8958 102.75 61ZM128.781 87.1875V61.1875H134.594V95H129.062L128.781 87.1875ZM129.875 80.0625L132.281 80C132.281 82.25 132.042 84.3333 131.562 86.25C131.104 88.1458 130.354 89.7917 129.312 91.1875C128.271 92.5833 126.906 93.6771 125.219 94.4688C123.531 95.2396 121.479 95.625 119.062 95.625C117.417 95.625 115.906 95.3854 114.531 94.9062C113.177 94.4271 112.01 93.6875 111.031 92.6875C110.052 91.6875 109.292 90.3854 108.75 88.7812C108.229 87.1771 107.969 85.25 107.969 83V61.1875H113.75V83.0625C113.75 84.5833 113.917 85.8438 114.25 86.8438C114.604 87.8229 115.073 88.6042 115.656 89.1875C116.26 89.75 116.927 90.1458 117.656 90.375C118.406 90.6042 119.177 90.7188 119.969 90.7188C122.427 90.7188 124.375 90.25 125.812 89.3125C127.25 88.3542 128.281 87.0729 128.906 85.4688C129.552 83.8438 129.875 82.0417 129.875 80.0625ZM149.188 68.4062V95H143.406V61.1875H148.875L149.188 68.4062ZM147.812 76.8125L145.406 76.7188C145.427 74.4062 145.771 72.2708 146.438 70.3125C147.104 68.3333 148.042 66.6146 149.25 65.1562C150.458 63.6979 151.896 62.5729 153.562 61.7812C155.25 60.9688 157.115 60.5625 159.156 60.5625C160.823 60.5625 162.323 60.7917 163.656 61.25C164.99 61.6875 166.125 62.3958 167.062 63.375C168.021 64.3542 168.75 65.625 169.25 67.1875C169.75 68.7292 170 70.6146 170 72.8438V95H164.188V72.7812C164.188 71.0104 163.927 69.5938 163.406 68.5312C162.885 67.4479 162.125 66.6667 161.125 66.1875C160.125 65.6875 158.896 65.4375 157.438 65.4375C156 65.4375 154.688 65.7396 153.5 66.3438C152.333 66.9479 151.323 67.7812 150.469 68.8438C149.635 69.9062 148.979 71.125 148.5 72.5C148.042 73.8542 147.812 75.2917 147.812 76.8125ZM177.25 78.4688V77.75C177.25 75.3125 177.604 73.0521 178.312 70.9688C179.021 68.8646 180.042 67.0417 181.375 65.5C182.708 63.9375 184.323 62.7292 186.219 61.875C188.115 61 190.24 60.5625 192.594 60.5625C194.969 60.5625 197.104 61 199 61.875C200.917 62.7292 202.542 63.9375 203.875 65.5C205.229 67.0417 206.26 68.8646 206.969 70.9688C207.677 73.0521 208.031 75.3125 208.031 77.75V78.4688C208.031 80.9062 207.677 83.1667 206.969 85.25C206.26 87.3333 205.229 89.1562 203.875 90.7188C202.542 92.2604 200.927 93.4688 199.031 94.3438C197.156 95.1979 195.031 95.625 192.656 95.625C190.281 95.625 188.146 95.1979 186.25 94.3438C184.354 93.4688 182.729 92.2604 181.375 90.7188C180.042 89.1562 179.021 87.3333 178.312 85.25C177.604 83.1667 177.25 80.9062 177.25 78.4688ZM183.031 77.75V78.4688C183.031 80.1562 183.229 81.75 183.625 83.25C184.021 84.7292 184.615 86.0417 185.406 87.1875C186.219 88.3333 187.229 89.2396 188.438 89.9062C189.646 90.5521 191.052 90.875 192.656 90.875C194.24 90.875 195.625 90.5521 196.812 89.9062C198.021 89.2396 199.021 88.3333 199.812 87.1875C200.604 86.0417 201.198 84.7292 201.594 83.25C202.01 81.75 202.219 80.1562 202.219 78.4688V77.75C202.219 76.0833 202.01 74.5104 201.594 73.0312C201.198 71.5312 200.594 70.2083 199.781 69.0625C198.99 67.8958 197.99 66.9792 196.781 66.3125C195.594 65.6458 194.198 65.3125 192.594 65.3125C191.01 65.3125 189.615 65.6458 188.406 66.3125C187.219 66.9792 186.219 67.8958 185.406 69.0625C184.615 70.2083 184.021 71.5312 183.625 73.0312C183.229 74.5104 183.031 76.0833 183.031 77.75Z" fill="#FFF615"/>
</g>
<line x1="175" y1="30" x2="206" y2="30" stroke="#FFF615" stroke-opacity="0.8" stroke-width="2"/>
<line x1="85" y1="167" x2="175" y2="167" stroke="#FFF615" stroke-opacity="0.8" stroke-width="2"/>
</g>
<defs>
<filter id="filter0_d_11_10" x="-4" y="0" width="269" height="201" filterUnits="userSpaceOnUse" color-interpolation-filters="sRGB">
<feFlood flood-opacity="0" result="BackgroundImageFix"/>
<feColorMatrix in="SourceAlpha" type="matrix" values="0 0 0 0 0 0 0 0 0 0 0 0 0 0 0 0 0 0 127 0" result="hardAlpha"/>
<feOffset dy="4"/>
<feGaussianBlur stdDeviation="2"/>
<feComposite in2="hardAlpha" operator="out"/>
<feColorMatrix type="matrix" values="0 0 0 0 0 0 0 0 0 0 0 0 0 0 0 0 0 0 0.25 0"/>
<feBlend mode="normal" in2="BackgroundImageFix" result="effect1_dropShadow_11_10"/>
<feBlend mode="normal" in="SourceGraphic" in2="effect1_dropShadow_11_10" result="shape"/>
</filter>
<clipPath id="clip0_11_10">
<rect width="261" height="193" fill="white"/>
</clipPath>
</defs>
</svg>
