<svg width="100" height="100" viewBox="0 0 100 100" fill="none" xmlns="http://www.w3.org/2000/svg">
<g clip-path="url(#clip0_86_7)">
<rect width="100" height="100" rx="50" fill="black"/>
<g opacity="0.8">
<path d="M28.3052 36.1782C28.3052 36.009 28.2671 35.8524 28.1909 35.7085C28.119 35.5604 27.9688 35.4271 27.7402 35.3086C27.516 35.1859 27.1774 35.0801 26.7246 34.9912C26.3438 34.9108 25.9989 34.8156 25.6899 34.7056C25.3853 34.5955 25.125 34.4622 24.9092 34.3057C24.6976 34.1491 24.5347 33.965 24.4204 33.7534C24.3062 33.5418 24.249 33.2943 24.249 33.0107C24.249 32.7399 24.3083 32.4839 24.4268 32.2427C24.5495 32.0015 24.7209 31.7878 24.9409 31.6016C25.1652 31.4154 25.4339 31.2694 25.7471 31.1636C26.0602 31.0578 26.4093 31.0049 26.7944 31.0049C27.3446 31.0049 27.8143 31.1022 28.2036 31.2969C28.5929 31.4915 28.8913 31.7518 29.0986 32.0776C29.306 32.3993 29.4097 32.7568 29.4097 33.1504H28.2354C28.2354 32.96 28.1782 32.7759 28.064 32.5981C27.9539 32.4162 27.791 32.266 27.5752 32.1475C27.3636 32.029 27.1034 31.9697 26.7944 31.9697C26.4686 31.9697 26.2041 32.0205 26.001 32.1221C25.8021 32.2194 25.6561 32.3442 25.563 32.4966C25.4741 32.6489 25.4297 32.8097 25.4297 32.979C25.4297 33.106 25.4508 33.2202 25.4932 33.3218C25.5397 33.4191 25.6201 33.5101 25.7344 33.5947C25.8486 33.6751 26.0094 33.7513 26.2168 33.8232C26.4242 33.8952 26.6886 33.9671 27.0103 34.0391C27.5731 34.166 28.0365 34.3184 28.4004 34.4961C28.7643 34.6738 29.0352 34.8918 29.2129 35.1499C29.3906 35.408 29.4795 35.7212 29.4795 36.0894C29.4795 36.3898 29.416 36.6649 29.2891 36.9146C29.1663 37.1642 28.9865 37.38 28.7495 37.562C28.5168 37.7397 28.2375 37.8794 27.9116 37.981C27.59 38.0783 27.2282 38.127 26.8262 38.127C26.221 38.127 25.709 38.019 25.29 37.8032C24.8711 37.5874 24.5537 37.3081 24.3379 36.9653C24.1221 36.6226 24.0142 36.2607 24.0142 35.8799H25.1948C25.2118 36.2015 25.3049 36.4575 25.4741 36.6479C25.6434 36.8341 25.8507 36.9674 26.0962 37.0479C26.3416 37.124 26.585 37.1621 26.8262 37.1621C27.1478 37.1621 27.4165 37.1198 27.6323 37.0352C27.8524 36.9505 28.0195 36.8341 28.1338 36.686C28.248 36.5379 28.3052 36.3687 28.3052 36.1782ZM37.1221 31.1318V32.0332H33.4087V31.1318H37.1221ZM34.6655 29.4624H35.8398V36.2988C35.8398 36.5316 35.8758 36.7072 35.9478 36.8257C36.0197 36.9442 36.1128 37.0225 36.2271 37.0605C36.3413 37.0986 36.464 37.1177 36.5952 37.1177C36.6925 37.1177 36.7941 37.1092 36.8999 37.0923C37.0099 37.0711 37.0924 37.0542 37.1475 37.0415L37.1538 38C37.0607 38.0296 36.938 38.0571 36.7856 38.0825C36.6375 38.1121 36.4577 38.127 36.2461 38.127C35.9583 38.127 35.6938 38.0698 35.4526 37.9556C35.2114 37.8413 35.0189 37.6509 34.875 37.3843C34.7354 37.1134 34.6655 36.7495 34.6655 36.2925V29.4624ZM45.9263 36.4131V31.1318H47.1069V38H45.9834L45.9263 36.4131ZM46.1484 34.9658L46.6372 34.9531C46.6372 35.4102 46.5885 35.8333 46.4912 36.2227C46.3981 36.6077 46.2458 36.9421 46.0342 37.2256C45.8226 37.5091 45.5454 37.7313 45.2026 37.8921C44.8599 38.0487 44.443 38.127 43.9521 38.127C43.6178 38.127 43.311 38.0783 43.0317 37.981C42.7567 37.8836 42.5197 37.7334 42.3208 37.5303C42.1219 37.3271 41.9674 37.0627 41.8574 36.7368C41.7516 36.411 41.6987 36.0195 41.6987 35.5625V31.1318H42.873V35.5752C42.873 35.8841 42.9069 36.1401 42.9746 36.3433C43.0465 36.5422 43.1418 36.7008 43.2603 36.8193C43.383 36.9336 43.5184 37.014 43.6665 37.0605C43.8188 37.1071 43.9754 37.1304 44.1362 37.1304C44.6356 37.1304 45.0312 37.0352 45.3232 36.8447C45.6152 36.6501 45.8247 36.3898 45.9517 36.064C46.0828 35.7339 46.1484 35.3678 46.1484 34.9658ZM56.4507 36.667V28.25H57.6313V38H56.5522L56.4507 36.667ZM51.8296 34.6421V34.5088C51.8296 33.984 51.8931 33.508 52.02 33.0806C52.1512 32.6489 52.3353 32.2786 52.5723 31.9697C52.8135 31.6608 53.0991 31.4238 53.4292 31.2588C53.7635 31.0895 54.1359 31.0049 54.5464 31.0049C54.978 31.0049 55.3547 31.0811 55.6763 31.2334C56.0021 31.3815 56.2772 31.5994 56.5015 31.8872C56.73 32.1707 56.9098 32.5135 57.041 32.9155C57.1722 33.3175 57.2632 33.7725 57.314 34.2803V34.8643C57.2674 35.3678 57.1764 35.8206 57.041 36.2227C56.9098 36.6247 56.73 36.9674 56.5015 37.251C56.2772 37.5345 56.0021 37.7524 55.6763 37.9048C55.3504 38.0529 54.9696 38.127 54.5337 38.127C54.1317 38.127 53.7635 38.0402 53.4292 37.8667C53.0991 37.6932 52.8135 37.4499 52.5723 37.1367C52.3353 36.8236 52.1512 36.4554 52.02 36.0322C51.8931 35.6048 51.8296 35.1414 51.8296 34.6421ZM53.0103 34.5088V34.6421C53.0103 34.9849 53.0441 35.3065 53.1118 35.6069C53.1838 35.9074 53.2938 36.1719 53.4419 36.4004C53.59 36.6289 53.7783 36.8088 54.0068 36.9399C54.2354 37.0669 54.5083 37.1304 54.8257 37.1304C55.215 37.1304 55.5345 37.0479 55.7842 36.8828C56.0381 36.7178 56.2412 36.4998 56.3936 36.229C56.5459 35.9582 56.6644 35.6641 56.749 35.3467V33.8169C56.6982 33.5841 56.6242 33.3599 56.5269 33.144C56.4338 32.924 56.311 32.7293 56.1587 32.5601C56.0106 32.3866 55.8265 32.249 55.6064 32.1475C55.3906 32.0459 55.1346 31.9951 54.8384 31.9951C54.5168 31.9951 54.2396 32.0628 54.0068 32.1982C53.7783 32.3294 53.59 32.5114 53.4419 32.7441C53.2938 32.9727 53.1838 33.2393 53.1118 33.5439C53.0441 33.8444 53.0103 34.166 53.0103 34.5088ZM63.96 31.1318V38H62.7793V31.1318H63.96ZM62.6904 29.3101C62.6904 29.1196 62.7476 28.9588 62.8618 28.8276C62.9803 28.6965 63.1538 28.6309 63.3823 28.6309C63.6066 28.6309 63.778 28.6965 63.8965 28.8276C64.0192 28.9588 64.0806 29.1196 64.0806 29.3101C64.0806 29.492 64.0192 29.6486 63.8965 29.7798C63.778 29.9067 63.6066 29.9702 63.3823 29.9702C63.1538 29.9702 62.9803 29.9067 62.8618 29.7798C62.7476 29.6486 62.6904 29.492 62.6904 29.3101ZM68.7588 34.6421V34.4961C68.7588 34.001 68.8307 33.5418 68.9746 33.1187C69.1185 32.6912 69.3258 32.321 69.5967 32.0078C69.8675 31.6904 70.1955 31.445 70.5806 31.2715C70.9657 31.0938 71.3973 31.0049 71.8755 31.0049C72.3579 31.0049 72.7917 31.0938 73.1768 31.2715C73.5661 31.445 73.8962 31.6904 74.167 32.0078C74.4421 32.321 74.6515 32.6912 74.7954 33.1187C74.9393 33.5418 75.0112 34.001 75.0112 34.4961V34.6421C75.0112 35.1372 74.9393 35.5964 74.7954 36.0195C74.6515 36.4427 74.4421 36.813 74.167 37.1304C73.8962 37.4435 73.5682 37.689 73.1831 37.8667C72.8022 38.0402 72.3706 38.127 71.8882 38.127C71.4058 38.127 70.972 38.0402 70.5869 37.8667C70.2018 37.689 69.8717 37.4435 69.5967 37.1304C69.3258 36.813 69.1185 36.4427 68.9746 36.0195C68.8307 35.5964 68.7588 35.1372 68.7588 34.6421ZM69.9331 34.4961V34.6421C69.9331 34.9849 69.9733 35.3086 70.0537 35.6133C70.1341 35.9137 70.2547 36.1803 70.4155 36.4131C70.5806 36.6458 70.7858 36.8299 71.0312 36.9653C71.2767 37.0965 71.5623 37.1621 71.8882 37.1621C72.2098 37.1621 72.4912 37.0965 72.7324 36.9653C72.9779 36.8299 73.181 36.6458 73.3418 36.4131C73.5026 36.1803 73.6232 35.9137 73.7036 35.6133C73.7882 35.3086 73.8306 34.9849 73.8306 34.6421V34.4961C73.8306 34.1576 73.7882 33.8381 73.7036 33.5376C73.6232 33.2329 73.5005 32.9642 73.3354 32.7314C73.1746 32.4945 72.9715 32.3083 72.7261 32.1729C72.4849 32.0374 72.2013 31.9697 71.8755 31.9697C71.5539 31.9697 71.2703 32.0374 71.0249 32.1729C70.7837 32.3083 70.5806 32.4945 70.4155 32.7314C70.2547 32.9642 70.1341 33.2329 70.0537 33.5376C69.9733 33.8381 69.9331 34.1576 69.9331 34.4961ZM33.3008 52.7578H34.4878L37.5156 60.2925L40.5371 52.7578H41.7305L37.9727 62H37.0459L33.3008 52.7578ZM32.9136 52.7578H33.9609L34.1323 58.3945V62H32.9136V52.7578ZM41.064 52.7578H42.1113V62H40.8926V58.3945L41.064 52.7578ZM48.2876 60.4131V55.1318H49.4683V62H48.3447L48.2876 60.4131ZM48.5098 58.9658L48.9985 58.9531C48.9985 59.4102 48.9499 59.8333 48.8525 60.2227C48.7594 60.6077 48.6071 60.9421 48.3955 61.2256C48.1839 61.5091 47.9067 61.7313 47.564 61.8921C47.2212 62.0487 46.8044 62.127 46.3135 62.127C45.9792 62.127 45.6724 62.0783 45.3931 61.981C45.118 61.8836 44.881 61.7334 44.6821 61.5303C44.4832 61.3271 44.3288 61.0627 44.2188 60.7368C44.113 60.411 44.0601 60.0195 44.0601 59.5625V55.1318H45.2344V59.5752C45.2344 59.8841 45.2682 60.1401 45.3359 60.3433C45.4079 60.5422 45.5031 60.7008 45.6216 60.8193C45.7443 60.9336 45.8797 61.014 46.0278 61.0605C46.1802 61.1071 46.3368 61.1304 46.4976 61.1304C46.9969 61.1304 47.3926 61.0352 47.6846 60.8447C47.9766 60.6501 48.186 60.3898 48.313 60.064C48.4442 59.7339 48.5098 59.3678 48.5098 58.9658ZM52.4326 56.5981V62H51.2583V55.1318H52.3691L52.4326 56.5981ZM52.1533 58.3057L51.6646 58.2866C51.6688 57.8169 51.7386 57.3831 51.874 56.9854C52.0094 56.5833 52.1999 56.2342 52.4453 55.938C52.6908 55.6418 52.9827 55.4132 53.3213 55.2524C53.6641 55.0874 54.0428 55.0049 54.4575 55.0049C54.7961 55.0049 55.1007 55.0514 55.3716 55.1445C55.6424 55.2334 55.873 55.3773 56.0635 55.5762C56.2581 55.7751 56.4062 56.0332 56.5078 56.3506C56.6094 56.6637 56.6602 57.0467 56.6602 57.4995V62H55.4795V57.4868C55.4795 57.1271 55.4266 56.8394 55.3208 56.6235C55.215 56.4035 55.0605 56.2448 54.8574 56.1475C54.6543 56.0459 54.4046 55.9951 54.1084 55.9951C53.8164 55.9951 53.5498 56.0565 53.3086 56.1792C53.0716 56.3019 52.8664 56.4712 52.6929 56.687C52.5236 56.9028 52.3903 57.1504 52.293 57.4297C52.1999 57.7048 52.1533 57.9967 52.1533 58.3057ZM59.7197 55.1318V62H58.5391V55.1318H59.7197ZM58.4502 53.3101C58.4502 53.1196 58.5073 52.9588 58.6216 52.8276C58.7401 52.6965 58.9136 52.6309 59.1421 52.6309C59.3664 52.6309 59.5378 52.6965 59.6562 52.8276C59.779 52.9588 59.8403 53.1196 59.8403 53.3101C59.8403 53.492 59.779 53.6486 59.6562 53.7798C59.5378 53.9067 59.3664 53.9702 59.1421 53.9702C58.9136 53.9702 58.7401 53.9067 58.6216 53.7798C58.5073 53.6486 58.4502 53.492 58.4502 53.3101ZM66.7212 61.0352V62H61.7256V61.0352H66.7212ZM66.5371 55.9634L61.9922 62H61.2749V61.1367L65.7881 55.1318H66.5371V55.9634ZM66.0166 55.1318V56.103H61.3257V55.1318H66.0166Z" fill="white"/>
<path d="M36.7285 45.6772H34.3862L34.3735 44.6934H36.5C36.8512 44.6934 37.158 44.6341 37.4204 44.5156C37.6828 44.3971 37.8859 44.2279 38.0298 44.0078C38.1779 43.7835 38.252 43.5169 38.252 43.208C38.252 42.8695 38.1864 42.5944 38.0552 42.3828C37.9282 42.167 37.7314 42.0104 37.4648 41.9131C37.2025 41.8115 36.8682 41.7607 36.4619 41.7607H34.6592V50H33.4341V40.7578H36.4619C36.9359 40.7578 37.359 40.8065 37.7314 40.9038C38.1038 40.9969 38.4191 41.145 38.6772 41.3481C38.9396 41.547 39.1385 41.8009 39.2739 42.1099C39.4093 42.4188 39.4771 42.7891 39.4771 43.2207C39.4771 43.6016 39.3797 43.9465 39.1851 44.2554C38.9904 44.5601 38.7196 44.8097 38.3726 45.0044C38.0298 45.1991 37.6278 45.3239 37.1665 45.3789L36.7285 45.6772ZM36.6714 50H33.9038L34.5957 49.0034H36.6714C37.0607 49.0034 37.3908 48.9357 37.6616 48.8003C37.9367 48.6649 38.1462 48.4744 38.29 48.229C38.4339 47.9793 38.5059 47.6852 38.5059 47.3467C38.5059 47.0039 38.4445 46.7077 38.3218 46.458C38.1991 46.2083 38.0065 46.0158 37.7441 45.8804C37.4818 45.745 37.1432 45.6772 36.7285 45.6772H34.9829L34.9956 44.6934H37.3823L37.6426 45.0488C38.0869 45.0869 38.4635 45.2139 38.7725 45.4297C39.0814 45.6413 39.3162 45.9121 39.4771 46.2422C39.6421 46.5723 39.7246 46.9362 39.7246 47.334C39.7246 47.9095 39.5977 48.3962 39.3438 48.7939C39.0941 49.1875 38.7407 49.488 38.2837 49.6953C37.8267 49.8984 37.2892 50 36.6714 50ZM42.5303 44.2109V50H41.356V43.1318H42.4985L42.5303 44.2109ZM44.6758 43.0938L44.6694 44.1855C44.5721 44.1644 44.479 44.1517 44.3901 44.1475C44.3055 44.139 44.2082 44.1348 44.0981 44.1348C43.8273 44.1348 43.5882 44.1771 43.3809 44.2617C43.1735 44.3464 42.9979 44.4648 42.854 44.6172C42.7101 44.7695 42.5959 44.9515 42.5112 45.1631C42.4308 45.3704 42.3779 45.599 42.3525 45.8486L42.0225 46.0391C42.0225 45.6243 42.0627 45.235 42.1431 44.8711C42.2277 44.5072 42.3568 44.1855 42.5303 43.9062C42.7038 43.6227 42.9238 43.4027 43.1904 43.2461C43.4613 43.0853 43.7829 43.0049 44.1553 43.0049C44.2399 43.0049 44.3372 43.0155 44.4473 43.0366C44.5573 43.0535 44.6335 43.0726 44.6758 43.0938ZM49.9634 48.4131V43.1318H51.144V50H50.0205L49.9634 48.4131ZM50.1855 46.9658L50.6743 46.9531C50.6743 47.4102 50.6257 47.8333 50.5283 48.2227C50.4352 48.6077 50.2829 48.9421 50.0713 49.2256C49.8597 49.5091 49.5825 49.7313 49.2397 49.8921C48.897 50.0487 48.4801 50.127 47.9893 50.127C47.6549 50.127 47.3481 50.0783 47.0688 49.981C46.7938 49.8836 46.5568 49.7334 46.3579 49.5303C46.159 49.3271 46.0046 49.0627 45.8945 48.7368C45.7887 48.411 45.7358 48.0195 45.7358 47.5625V43.1318H46.9102V47.5752C46.9102 47.8841 46.944 48.1401 47.0117 48.3433C47.0837 48.5422 47.1789 48.7008 47.2974 48.8193C47.4201 48.9336 47.5555 49.014 47.7036 49.0605C47.856 49.1071 48.0125 49.1304 48.1733 49.1304C48.6727 49.1304 49.0684 49.0352 49.3604 48.8447C49.6523 48.6501 49.8618 48.3898 49.9888 48.064C50.12 47.7339 50.1855 47.3678 50.1855 46.9658ZM54.1084 44.5981V50H52.9341V43.1318H54.0449L54.1084 44.5981ZM53.8291 46.3057L53.3403 46.2866C53.3446 45.8169 53.4144 45.3831 53.5498 44.9854C53.6852 44.5833 53.8757 44.2342 54.1211 43.938C54.3665 43.6418 54.6585 43.4132 54.9971 43.2524C55.3398 43.0874 55.7186 43.0049 56.1333 43.0049C56.4718 43.0049 56.7765 43.0514 57.0474 43.1445C57.3182 43.2334 57.5488 43.3773 57.7393 43.5762C57.9339 43.7751 58.082 44.0332 58.1836 44.3506C58.2852 44.6637 58.3359 45.0467 58.3359 45.4995V50H57.1553V45.4868C57.1553 45.1271 57.1024 44.8394 56.9966 44.6235C56.8908 44.4035 56.7363 44.2448 56.5332 44.1475C56.3301 44.0459 56.0804 43.9951 55.7842 43.9951C55.4922 43.9951 55.2256 44.0565 54.9844 44.1792C54.7474 44.3019 54.5422 44.4712 54.3687 44.687C54.1994 44.9028 54.0661 45.1504 53.9688 45.4297C53.8757 45.7048 53.8291 45.9967 53.8291 46.3057ZM59.8086 46.6421V46.4961C59.8086 46.001 59.8805 45.5418 60.0244 45.1187C60.1683 44.6912 60.3757 44.321 60.6465 44.0078C60.9173 43.6904 61.2453 43.445 61.6304 43.2715C62.0155 43.0938 62.4471 43.0049 62.9253 43.0049C63.4077 43.0049 63.8415 43.0938 64.2266 43.2715C64.6159 43.445 64.946 43.6904 65.2168 44.0078C65.4919 44.321 65.7013 44.6912 65.8452 45.1187C65.9891 45.5418 66.061 46.001 66.061 46.4961V46.6421C66.061 47.1372 65.9891 47.5964 65.8452 48.0195C65.7013 48.4427 65.4919 48.813 65.2168 49.1304C64.946 49.4435 64.618 49.689 64.2329 49.8667C63.8521 50.0402 63.4204 50.127 62.938 50.127C62.4556 50.127 62.0218 50.0402 61.6367 49.8667C61.2516 49.689 60.9215 49.4435 60.6465 49.1304C60.3757 48.813 60.1683 48.4427 60.0244 48.0195C59.8805 47.5964 59.8086 47.1372 59.8086 46.6421ZM60.9829 46.4961V46.6421C60.9829 46.9849 61.0231 47.3086 61.1035 47.6133C61.1839 47.9137 61.3045 48.1803 61.4653 48.4131C61.6304 48.6458 61.8356 48.8299 62.0811 48.9653C62.3265 49.0965 62.6121 49.1621 62.938 49.1621C63.2596 49.1621 63.541 49.0965 63.7822 48.9653C64.0277 48.8299 64.2308 48.6458 64.3916 48.4131C64.5524 48.1803 64.673 47.9137 64.7534 47.6133C64.8381 47.3086 64.8804 46.9849 64.8804 46.6421V46.4961C64.8804 46.1576 64.8381 45.8381 64.7534 45.5376C64.673 45.2329 64.5503 44.9642 64.3853 44.7314C64.2244 44.4945 64.0213 44.3083 63.7759 44.1729C63.5347 44.0374 63.2511 43.9697 62.9253 43.9697C62.6037 43.9697 62.3201 44.0374 62.0747 44.1729C61.8335 44.3083 61.6304 44.4945 61.4653 44.7314C61.3045 44.9642 61.1839 45.2329 61.1035 45.5376C61.0231 45.8381 60.9829 46.1576 60.9829 46.4961Z" fill="#FFF615"/>
</g>
<line x1="40" y1="69" x2="60" y2="69" stroke="#FFF615" stroke-opacity="0.8" stroke-width="2"/>
<line x1="15" y1="34" x2="18" y2="34" stroke="#FFF615" stroke-opacity="0.8" stroke-width="2"/>
<line x1="81" y1="34" x2="84" y2="34" stroke="#FFF615" stroke-opacity="0.8" stroke-width="2"/>
</g>
<defs>
<clipPath id="clip0_86_7">
<rect width="100" height="100" rx="50" fill="white"/>
</clipPath>
</defs>
</svg>
